<svg width="26" height="26" viewBox="0 0 26 26" fill="none" xmlns="http://www.w3.org/2000/svg">
<path d="M10.8268 0C4.86015 0 0 4.86015 0 10.8268C0 16.7934 4.86015 21.6536 10.8268 21.6536C13.4214 21.6536 15.8043 20.7322 17.6718 19.2028L24.1361 25.6671C24.2359 25.771 24.3554 25.854 24.4876 25.9111C24.6199 25.9683 24.7622 25.9985 24.9062 25.9999C25.0502 26.0014 25.1931 25.9741 25.3265 25.9197C25.4598 25.8652 25.581 25.7847 25.6829 25.6829C25.7847 25.581 25.8652 25.4598 25.9197 25.3265C25.9741 25.1931 26.0014 25.0502 25.9999 24.9062C25.9985 24.7622 25.9683 24.6199 25.9111 24.4876C25.854 24.3554 25.771 24.2359 25.6671 24.1361L19.2028 17.6718C20.7322 15.8043 21.6536 13.4214 21.6536 10.8268C21.6536 4.86015 16.7934 0 10.8268 0ZM10.8268 2.16536C15.6232 2.16536 19.4882 6.03039 19.4882 10.8268C19.4882 15.6232 15.6232 19.4882 10.8268 19.4882C6.03039 19.4882 2.16536 15.6232 2.16536 10.8268C2.16536 6.03039 6.03039 2.16536 10.8268 2.16536Z" fill="white"/>
</svg>
